<?xml version="1.0" encoding="UTF-8"?>
<svg width="1440px" height="1024px" viewBox="0 0 1440 1024" version="1.1" xmlns="http://www.w3.org/2000/svg" xmlns:xlink="http://www.w3.org/1999/xlink">
    <!-- Generator: Sketch 49 (51002) - http://www.bohemiancoding.com/sketch -->
    <title>Desktop HD</title>
    <desc>Created with Sketch.</desc>
    <defs>
        <path d="M209.554745,202.146892 L208.028776,209.969658 C215.784112,203.594036 223.363582,200.665132 230.767415,201.182859 C237.262005,201.637005 243.006233,204.420761 248.00027,209.534212 L233.024468,226.30384 C229.298924,222.649624 225.45536,220.684031 221.49366,220.407002 C218.765932,220.216261 216.325503,220.584025 214.172301,221.510306 C212.019098,222.436586 210.0988,223.999131 208.411349,226.197986 C206.723899,228.396841 205.249704,231.279514 203.988721,234.846092 C202.727738,238.41267 201.627889,242.708348 200.689142,247.733255 L191.837164,293.124781 L170.307705,291.619295 L188.025286,200.641406 L209.554745,202.146892 Z M70.2630542,213.617307 C64.8137621,217.694475 59.014925,220.619069 55.1732572,221.974096 C51.232454,223.264852 46.4369777,223.712669 40.7866843,223.317562 C27.9273959,222.418353 17.7037789,217.428755 10.1155267,208.348618 C2.53181583,199.203535 -0.787677964,187.87679 0.156945674,174.368043 C1.16514975,159.950053 6.48423646,148.28107 16.1143654,139.360744 C25.7444943,130.440418 37.3462314,126.454897 50.9199247,127.404062 C57.8691361,127.889998 63.6301637,129.500205 68.2031805,132.23473 C72.9664935,135.047825 77.5215431,139.153555 82.49878,145.440573 L100.320078,59.6642596 L100.362051,59.667882 L111.982097,-3.21964677e-15 L133.511453,1.50547924 L115.793926,92.4833721 L115.740648,92.4796465 L107.858774,132.877827 L107.767742,133.087028 L92.8891128,209.343497 C98.834601,205.51712 103.935494,203.034891 108.191943,201.896734 C112.647772,200.707256 117.408505,200.289641 122.474286,200.643875 C134.943899,201.515835 144.937938,206.522011 152.456703,215.662552 C159.980009,224.738147 163.280655,235.867787 162.358738,249.051805 C161.345993,263.534741 155.892475,275.259586 145.998021,284.226692 C136.029538,293.319149 124.356044,297.397545 110.977188,296.462004 C98.5075753,295.590044 87.9328906,290.021166 79.2528169,279.755202 L76.8357914,291.920922 L55.3063329,290.415435 L70.2630542,213.617307 Z M281.91287,203.505485 L264.195289,294.483374 L242.66583,292.977887 L260.383411,201.999998 L281.91287,203.505485 Z M71.9991358,173.182185 C72.544111,165.388677 70.5816637,158.920988 66.111735,153.778923 C61.6418064,148.636858 55.51018,145.793381 47.7166719,145.248406 C39.2737048,144.658016 32.0718676,147.319646 26.1109445,153.233374 C20.1500213,159.147102 16.8335414,166.909847 16.1614054,176.52184 C15.5937229,184.640077 17.5078029,191.332803 21.9037027,196.600218 C26.304144,201.802688 32.4334997,204.678637 40.2919537,205.228154 C48.4751372,205.800378 55.6233829,202.971845 61.7369051,196.74247 C67.9062904,190.647528 71.3269997,182.794179 71.9991358,173.182185 Z M146.173154,247.942528 C146.745378,239.759345 144.777707,232.899715 140.270081,227.363433 C135.762455,221.827152 129.61198,218.786569 121.818472,218.241594 C113.375505,217.651204 106.175939,220.280361 100.219557,226.129143 C94.2722582,231.848034 90.9603197,239.545833 90.2836422,249.222773 C89.7159597,257.34101 91.6300397,264.033736 96.0259395,269.301151 C100.412756,274.698458 106.40541,277.662742 114.004081,278.194093 C122.382102,278.779942 129.648884,276.122854 135.804645,270.22275 C142.090297,264.331729 145.546433,256.905062 146.173154,247.942528 Z M288.437252,173.30905 C288.219262,176.426453 286.894258,179.042194 284.4622,181.156349 C282.030142,183.270504 279.222981,184.216302 276.040632,183.993771 C272.858283,183.771239 270.179869,182.409221 268.005309,179.907676 C265.904778,177.280781 264.965792,174.376202 265.188323,171.193853 C265.410855,168.011504 266.703386,165.393493 269.065957,163.339742 C271.498014,161.225587 274.272703,160.277518 277.390106,160.495508 C280.572456,160.71804 283.248599,162.11253 285.418618,164.679021 C287.658123,167.185108 288.664325,170.061755 288.437252,173.30905 Z M341.338917,130.798233 L325.623488,211.343497 C331.568976,207.51712 336.669869,205.034891 340.926318,203.896734 C345.382147,202.707256 350.14288,202.289641 355.208661,202.643875 C367.678274,203.515835 377.672313,208.522011 385.191078,217.662552 C392.714384,226.738147 396.01503,237.867787 395.093113,251.051805 C394.080368,265.534741 388.62685,277.259586 378.732396,286.226692 C368.763913,295.319149 357.090419,299.397545 343.711563,298.462004 C331.24195,297.590044 320.667266,292.021166 311.987192,281.755202 L309.570166,293.920922 L288.040708,292.415435 L319.809459,129.292746 L341.338917,130.798233 Z M378.907529,249.942528 C379.479753,241.759345 377.512082,234.899715 373.004456,229.363433 C368.49683,223.827152 362.346355,220.786569 354.552847,220.241594 C346.10988,219.651204 338.910314,222.280361 332.953932,228.129143 C327.006633,233.848034 323.694695,241.545833 323.018017,251.222773 C322.450335,259.34101 324.364415,266.033736 328.760315,271.301151 C333.147131,276.698458 339.139785,279.662742 346.738456,280.194093 C355.116477,280.779942 362.383259,278.122854 368.53902,272.22275 C374.824672,266.331729 378.280808,258.905062 378.907529,249.942528 Z M427.837266,254.214143 C427.364954,260.968516 429.314682,266.684798 433.686509,271.363158 C438.123282,276.04606 444.011024,278.644064 451.349911,279.157249 C461.416525,279.861176 469.408372,276.634795 475.325691,269.478012 L490.779815,279.467089 C484.667658,286.610248 478.55218,291.468874 472.433196,294.043112 C466.244724,296.677755 458.669335,297.681701 449.706801,297.05498 C435.483648,296.0604 424.443678,291.078979 416.586559,282.110568 C408.729441,273.142157 405.29141,261.643967 406.272366,247.615653 C407.298736,232.937879 412.800621,220.987997 422.778187,211.765649 C432.686265,202.603705 444.686755,198.515543 458.780015,199.50104 C472.418654,200.454747 482.858225,205.622602 490.09904,215.004761 C497.465206,224.460949 500.625974,236.657639 499.581438,251.595196 C499.472443,253.153897 499.197911,255.679938 498.757835,259.173392 L427.837266,254.214143 Z M479.028964,240.233796 C477.745896,225.916639 470.415044,218.290404 457.036188,217.354863 C444.371737,216.469279 435.62872,222.971519 430.806874,236.861779 L479.028964,240.233796 Z" id="path-1"></path>
        <filter x="-0.0%" y="-0.0%" width="100.0%" height="100.0%" filterUnits="objectBoundingBox" id="filter-2">
            <feGaussianBlur stdDeviation="0" in="SourceGraphic"></feGaussianBlur>
        </filter>
        <linearGradient x1="45.3715028%" y1="2.2102363%" x2="13.1335393%" y2="94.6682255%" id="linearGradient-3">
            <stop stop-color="#5555CE" offset="0%"></stop>
            <stop stop-color="#BD309F" offset="51.7589415%"></stop>
            <stop stop-color="#E02F74" offset="75.1576261%"></stop>
            <stop stop-color="#FFD879" offset="100%"></stop>
        </linearGradient>
        <ellipse id="path-4" cx="720" cy="507.5" rx="250" ry="4.5"></ellipse>
        <filter x="-4.5%" y="-250.0%" width="109.0%" height="600.0%" filterUnits="objectBoundingBox" id="filter-5">
            <feOffset dx="0" dy="0" in="SourceAlpha" result="shadowOffsetOuter1"></feOffset>
            <feGaussianBlur stdDeviation="7.5" in="shadowOffsetOuter1" result="shadowBlurOuter1"></feGaussianBlur>
            <feColorMatrix values="0 0 0 0 0   0 0 0 0 0   0 0 0 0 0  0 0 0 0.5 0" type="matrix" in="shadowBlurOuter1"></feColorMatrix>
        </filter>
    </defs>
    <g id="Desktop-HD" stroke="none" stroke-width="1" fill="none" fill-rule="evenodd">
        <g id="Group-2" transform="translate(470.000000, 116.000000)">
            <g id="dbribe" filter="url(#filter-2)">
                <use fill="#656565" xlink:href="#path-1"></use>
            </g>
        </g>
        <g id="Group" transform="translate(260.000000, 650.000000)">
            <path d="M31.7411093,50.7856926 L53.3482779,39.624965 L31.7411093,28.3303087 L31.7411093,50.7856926 Z M40.0000477,12.3035038 C56.8304249,12.3035038 67.9911525,13.1070762 67.9911525,13.1070762 C69.5536543,13.2856479 72.9911584,13.2856479 76.0268763,16.4999374 C76.0268763,16.4999374 78.4822364,18.9106546 79.196523,24.4463755 C80.0447383,30.9195975 80.0000954,37.3928195 80.0000954,37.3928195 L80.0000954,43.4642553 C80.0000954,43.4642553 80.0447383,49.9374773 79.196523,56.4106993 C78.4822364,61.9017773 76.0268763,64.3571373 76.0268763,64.3571373 C72.9911584,67.526784 69.5536543,67.526784 67.9911525,67.7053556 C67.9911525,67.7053556 56.8304249,68.5535709 40.0000477,68.5535709 C19.1964515,68.3749993 12.8125153,67.7499985 12.8125153,67.7499985 C11.0267989,67.4374981 7.00893693,67.526784 3.97321902,64.3571373 C3.97321902,64.3571373 1.51785895,61.9017773 0.803572387,56.4106993 C-0.0446429104,49.9374773 5.15538133e-17,43.4642553 5.15538133e-17,43.4642553 L5.15538133e-17,37.3928195 C5.15538133e-17,37.3928195 -0.0446429104,30.9195975 0.803572387,24.4463755 C1.51785895,18.9106546 3.97321902,16.4999374 3.97321902,16.4999374 C7.00893693,13.2856479 10.446441,13.2856479 12.0089429,13.1070762 C12.0089429,13.1070762 23.1696705,12.3035038 40.0000477,12.3035038 Z" id="youtube-play---FontAwesome" fill="#FF0002"></path>
            <path d="M141.58037,63.5535649 L151.892882,63.5535649 L151.892882,32.5713851 L141.58037,32.5713851 L141.58037,63.5535649 Z M152.562526,23.0178023 C152.517883,19.9820844 150.33038,17.6606531 146.80359,17.6606531 C143.2768,17.6606531 140.955369,19.9820844 140.955369,23.0178023 C140.955369,25.9642344 143.187515,28.3749516 146.669662,28.3749516 L146.714304,28.3749516 C150.33038,28.3749516 152.562526,25.9642344 152.562526,23.0178023 Z M167.875044,36.9387478 L167.875044,37.0803191 L167.785758,37.0803191 C167.814982,37.0335611 167.844737,36.9863567 167.875044,36.9387478 Z M167.875044,36.9387478 L167.875044,32.5713851 L157.562532,32.5713851 C157.562532,32.5713851 157.69646,35.4731743 157.562532,63.5535649 L167.875044,63.5535649 L167.875044,46.2321157 C167.875044,45.3392575 167.919687,44.4017564 168.187544,43.7321127 C168.946474,41.9017534 170.642904,39.9821083 173.500051,39.9821083 C177.205412,39.9821083 178.678628,42.7946116 178.678628,46.9910452 L178.678628,63.5535649 L188.991141,63.5535649 L188.991141,45.7856866 C188.991141,36.2767467 183.901849,31.8570986 177.116126,31.8570986 C171.701197,31.8570986 169.233666,34.8044968 167.875044,36.9387478 Z M199.57151,18.9999404 L199.57151,61.8571343 C199.57151,68.9553571 193.812575,74.7142925 186.714352,74.7142925 L143.857158,74.7142925 C136.758935,74.7142925 131,68.9553571 131,61.8571343 L131,18.9999404 C131,11.9017176 136.758935,6.14278221 143.857158,6.14278221 L186.714352,6.14278221 C193.812575,6.14278221 199.57151,11.9017176 199.57151,18.9999404 Z" id="linkedin-square---FontAwesome" fill="#0076B5"></path>
            <path d="M306.714352,6.14278221 C313.812575,6.14278221 319.57151,11.9017176 319.57151,18.9999404 L319.57151,61.8571343 C319.57151,68.9553571 313.812575,74.7142925 306.714352,74.7142925 L298.321485,74.7142925 L298.321485,48.1517609 L307.205424,48.1517609 L308.544711,37.7946057 L298.321485,37.7946057 L298.321485,31.1874549 C298.321485,28.1963799 299.125057,26.187449 303.45542,26.187449 L308.901855,26.1428061 L308.901855,16.9017236 C307.964354,16.7677949 304.705421,16.4999374 300.955417,16.4999374 C293.053622,16.4999374 287.607186,21.3213717 287.607186,30.160668 L287.607186,37.7946057 L278.678604,37.7946057 L278.678604,48.1517609 L287.607186,48.1517609 L287.607186,74.7142925 L263.857158,74.7142925 C256.758935,74.7142925 251,68.9553571 251,61.8571343 L251,18.9999404 C251,11.9017176 256.758935,6.14278221 263.857158,6.14278221 L306.714352,6.14278221 Z" id="facebook-square---FontAwesome" fill="#3B5898"></path>
            <path d="M416.71434,40.4285374 C416.71434,34.133887 411.580406,28.9999523 405.285755,28.9999523 C398.991105,28.9999523 393.85717,34.133887 393.85717,40.4285374 C393.85717,46.7231877 398.991105,51.8571224 405.285755,51.8571224 C411.580406,51.8571224 416.71434,46.7231877 416.71434,40.4285374 Z M422.875062,40.4285374 C422.875062,50.1606918 415.01791,58.0178441 405.285755,58.0178441 C395.553601,58.0178441 387.696448,50.1606918 387.696448,40.4285374 C387.696448,30.6963829 395.553601,22.8392307 405.285755,22.8392307 C415.01791,22.8392307 422.875062,30.6963829 422.875062,40.4285374 Z M427.696496,22.1249441 C427.696496,24.4017325 425.866137,26.2320919 423.589348,26.2320919 C421.31256,26.2320919 419.482201,24.4017325 419.482201,22.1249441 C419.482201,19.8481557 421.31256,18.0177964 423.589348,18.0177964 C425.866137,18.0177964 427.696496,19.8481557 427.696496,22.1249441 Z M405.285755,12.3035038 C400.285749,12.3035038 389.571451,11.9017176 385.062517,13.6874341 C383.500015,14.3124348 382.339299,15.0713643 381.133941,16.2767229 C379.928582,17.4820814 379.169653,18.6427971 378.544652,20.205299 C376.758935,24.7142329 377.160722,35.4285314 377.160722,40.4285374 C377.160722,45.4285433 376.758935,56.1428418 378.544652,60.6517758 C379.169653,62.2142776 379.928582,63.3749933 381.133941,64.5803519 C382.339299,65.7857105 383.500015,66.5446399 385.062517,67.1696407 C389.571451,68.9553571 400.285749,68.5535709 405.285755,68.5535709 C410.285761,68.5535709 421.00006,68.9553571 425.508994,67.1696407 C427.071495,66.5446399 428.232211,65.7857105 429.43757,64.5803519 C430.642928,63.3749933 431.401858,62.2142776 432.026858,60.6517758 C433.812575,56.1428418 433.410789,45.4285433 433.410789,40.4285374 C433.410789,35.4285314 433.812575,24.7142329 432.026858,20.205299 C431.401858,18.6427971 430.642928,17.4820814 429.43757,16.2767229 C428.232211,15.0713643 427.071495,14.3124348 425.508994,13.6874341 C421.00006,11.9017176 410.285761,12.3035038 405.285755,12.3035038 Z M439.57151,40.4285374 C439.57151,45.1606859 439.616153,49.8481915 439.348296,54.58034 C439.080438,60.0714179 437.830437,64.9374952 433.812575,68.9553571 C429.794713,72.973219 424.928636,74.2232205 419.437558,74.491078 C414.705409,74.7589354 410.017904,74.7142925 405.285755,74.7142925 C400.553607,74.7142925 395.866101,74.7589354 391.133953,74.491078 C385.642875,74.2232205 380.776797,72.973219 376.758935,68.9553571 C372.741074,64.9374952 371.491072,60.0714179 371.223215,54.58034 C370.955357,49.8481915 371,45.1606859 371,40.4285374 C371,35.6963889 370.955357,31.0088833 371.223215,26.2767348 C371.491072,20.7856568 372.741074,15.9195796 376.758935,11.9017176 C380.776797,7.88385572 385.642875,6.63385423 391.133953,6.36599676 C395.866101,6.0981393 400.553607,6.14278221 405.285755,6.14278221 C410.017904,6.14278221 414.705409,6.0981393 419.437558,6.36599676 C424.928636,6.63385423 429.794713,7.88385572 433.812575,11.9017176 C437.830437,15.9195796 439.080438,20.7856568 439.348296,26.2767348 C439.616153,31.0088833 439.57151,35.6963889 439.57151,40.4285374 Z" id="instagram---FontAwesome" fill="url(#linearGradient-3)"></path>
            <path d="M548.142925,27.660665 C546.446495,28.4195945 544.660778,28.9106665 542.741133,29.178524 C544.705421,28.0178083 546.178637,26.1428061 546.892924,23.9553034 C545.062564,25.0267333 543.053633,25.8303057 540.910774,26.2320919 C539.214343,24.4017325 536.758983,23.2856598 534.080408,23.2856598 C528.901831,23.2856598 524.705397,27.4820934 524.705397,32.660671 C524.705397,33.3749575 524.75004,34.133887 524.928612,34.8035307 C517.116103,34.4017445 510.196451,30.6963829 505.553589,24.9820904 C504.750016,26.3660206 504.258944,28.0178083 504.258944,29.7142389 C504.258944,32.9731713 505.776803,35.8303176 508.321449,37.5267482 C506.758947,37.4821053 505.285731,37.0356762 503.857158,36.3660325 L503.857158,36.4553183 C503.857158,41.0088952 507.294662,44.8035426 511.580382,45.6517579 C510.776809,45.8749724 510.151809,46.0089012 509.303593,46.0089012 C508.723235,46.0089012 508.142878,45.9196153 507.56252,45.8303295 C508.767878,49.5356911 512.205382,52.2589086 516.31253,52.3481944 C513.098241,54.8481974 509.080379,56.3660564 504.660731,56.3660564 C503.901801,56.3660564 503.142872,56.3214135 502.428585,56.2321276 C506.580376,58.8660593 511.491096,60.4285612 516.803602,60.4285612 C534.035766,60.4285612 543.500063,46.1428299 543.500063,33.7321008 C543.500063,33.3303146 543.500063,32.9285284 543.45542,32.5267422 C545.285779,31.2320978 546.892924,29.5803102 548.142925,27.660665 Z M559.57151,18.9999404 L559.57151,61.8571343 C559.57151,68.9553571 553.812575,74.7142925 546.714352,74.7142925 L503.857158,74.7142925 C496.758935,74.7142925 491,68.9553571 491,61.8571343 L491,18.9999404 C491,11.9017176 496.758935,6.14278221 503.857158,6.14278221 L546.714352,6.14278221 C553.812575,6.14278221 559.57151,11.9017176 559.57151,18.9999404 Z" id="twitter-square---FontAwesome" fill="#1EA1F3"></path>
            <path d="M885.285755,6.14278221 C904.214349,6.14278221 919.57151,21.4999434 919.57151,40.4285374 C919.57151,55.562484 909.75007,68.4196422 896.133982,72.973219 C894.392909,73.2857194 893.767908,72.2142895 893.767908,71.3214313 C893.767908,70.2053586 893.812551,66.499997 893.812551,61.9017773 C893.812551,58.6874877 892.741121,56.6339138 891.49112,55.562484 C899.125057,54.7142687 907.160781,51.8124795 907.160781,38.642821 C907.160781,34.8928165 905.821494,31.8570986 903.633991,29.4463814 C903.991135,28.5535232 905.15185,25.0713762 903.276848,20.3392277 C900.419702,19.4463695 893.857194,23.8660176 893.857194,23.8660176 C891.133976,23.1070881 888.187544,22.705302 885.285755,22.705302 C882.383966,22.705302 879.437534,23.1070881 876.714316,23.8660176 C876.714316,23.8660176 870.151809,19.4463695 867.294662,20.3392277 C865.41966,25.0713762 866.580376,28.5535232 866.937519,29.4463814 C864.750016,31.8570986 863.410729,34.8928165 863.410729,38.642821 C863.410729,51.7678366 871.40181,54.7142687 879.035748,55.562484 C878.053604,56.4553422 877.160745,57.9732011 876.848245,60.1607037 C874.883957,61.053562 869.883951,62.5714209 866.892876,57.3035575 C865.017874,54.044625 861.625013,53.7767676 861.625013,53.7767676 C858.276794,53.7321247 861.401798,55.8749844 861.401798,55.8749844 C863.633944,56.9017713 865.196445,60.8749903 865.196445,60.8749903 C867.205376,66.991069 876.758959,64.9374952 876.758959,64.9374952 C876.758959,67.7946414 876.803602,70.473216 876.803602,71.3214313 C876.803602,72.2142895 876.178601,73.2857194 874.437528,72.973219 C860.82144,68.4196422 851,55.562484 851,40.4285374 C851,21.4999434 866.357161,6.14278221 885.285755,6.14278221 Z M863.991087,55.3839123 C863.901801,55.562484 863.633944,55.6071269 863.410729,55.4731982 C863.142872,55.3392694 863.008943,55.1160549 863.098229,54.9374832 C863.187515,54.8035545 863.410729,54.7589116 863.678587,54.8481974 C863.946444,54.9821261 864.080373,55.2053407 863.991087,55.3839123 Z M865.375017,56.9017713 C865.196445,57.0803429 864.883945,56.9910571 864.660731,56.7678426 C864.437516,56.4999851 864.392873,56.1874847 864.571445,56.053556 C864.750016,55.8749844 865.062517,55.9642702 865.285731,56.1874847 C865.508946,56.4553422 865.553589,56.7678426 865.375017,56.9017713 Z M866.714304,58.9107023 C866.535733,59.044631 866.17859,58.9107023 865.955375,58.5982019 C865.73216,58.2857015 865.73216,57.9285582 865.955375,57.7946295 C866.17859,57.6160579 866.535733,57.7499866 866.714304,58.062487 C866.937519,58.3749873 866.937519,58.7321306 866.714304,58.9107023 Z M868.589307,60.7857045 C868.410735,61.008919 868.008949,60.9642761 867.696448,60.6517758 C867.383948,60.3839183 867.294662,59.9821321 867.517877,59.8035605 C867.696448,59.5803459 868.098235,59.6249888 868.410735,59.9374892 C868.678593,60.2053467 868.767878,60.6071329 868.589307,60.7857045 Z M871.133953,61.9017773 C871.044667,62.1696347 870.642881,62.3035634 870.285737,62.1696347 C869.883951,62.0803489 869.616094,61.7678485 869.705379,61.4999911 C869.794665,61.2321336 870.196451,61.0982049 870.553595,61.1874907 C870.955381,61.3214194 871.223238,61.6339198 871.133953,61.9017773 Z M873.946456,62.1249918 C873.946456,62.3928493 873.633956,62.6160638 873.232169,62.6160638 C872.78574,62.6607067 872.47324,62.4374922 872.47324,62.1249918 C872.47324,61.8571343 872.78574,61.6339198 873.187526,61.6339198 C873.589313,61.5892769 873.946456,61.8124914 873.946456,62.1249918 Z M876.535745,61.6785627 C876.580388,61.9464202 876.31253,62.2142776 875.910744,62.3035634 C875.508958,62.3928493 875.151815,62.2142776 875.107172,61.9464202 C875.062529,61.6339198 875.330386,61.3660623 875.732172,61.2767765 C876.133959,61.2321336 876.491102,61.4107052 876.535745,61.6785627 Z" id="github---FontAwesome" fill="#000000"></path>
            <g id="medium" transform="translate(611.000000, 6.000000)" fill="#000000" fill-rule="nonzero">
                <path d="M0,0 L0,69 L69,69 L69,0 L0,0 Z M57.3254464,16.3412946 L53.6290179,19.8837054 C53.3055804,20.1301339 53.1515625,20.5305804 53.2131696,20.915625 L53.2131696,46.9908482 C53.1515625,47.3912946 53.3055804,47.7917411 53.6290179,48.0227679 L57.2484375,51.5651786 L57.2484375,52.3506696 L39.0743304,52.3506696 L39.0743304,51.5959821 L42.8169643,47.9611607 C43.1866071,47.5915179 43.1866071,47.4837054 43.1866071,46.9292411 L43.1866071,25.8441964 L32.775,52.2736607 L31.3734375,52.2736607 L19.2522321,25.8441964 L19.2522321,43.55625 C19.1444196,44.2955357 19.40625,45.0502232 19.9299107,45.5892857 L24.796875,51.4881696 L24.796875,52.2736607 L10.9660714,52.2736607 L10.9660714,51.4881696 L15.8330357,45.5892857 C16.3566964,45.0502232 16.5877232,44.2955357 16.4645089,43.55625 L16.4645089,23.071875 C16.5261161,22.5020089 16.3104911,21.9475446 15.8792411,21.5625 L11.5513393,16.3412946 L11.5513393,15.5558036 L24.9970982,15.5558036 L35.3779018,38.3504464 L44.5111607,15.5712054 L57.3254464,15.5712054 L57.3254464,16.3412946 Z" id="Shape"></path>
            </g>
            <path d="M786.714352,6.14278221 C793.812575,6.14278221 799.57151,11.9017176 799.57151,18.9999404 L799.57151,61.8571343 C799.57151,68.9553571 793.812575,74.7142925 786.714352,74.7142925 L754.348242,74.7142925 C755.821458,72.6160757 758.232175,69 759.169676,65.3392814 C759.169676,65.3392814 759.571463,63.8214224 761.535751,56.0089131 C762.741109,58.2857015 766.178613,60.2499896 769.839332,60.2499896 C780.732202,60.2499896 788.142925,50.2946206 788.142925,36.9910333 C788.142925,26.9463784 779.616129,17.5713673 766.669685,17.5713673 C750.553595,17.5713673 742.428585,29.133881 742.428585,38.7767497 C742.428585,44.580328 744.660731,49.7589056 749.392879,51.7231937 C750.151809,52.0356941 750.866095,51.7231937 751.08931,50.8749784 C751.223238,50.2946206 751.580382,48.7767616 751.758953,48.1517609 C751.982168,47.3035456 751.892882,46.9910452 751.267881,46.2767586 C749.928594,44.6249709 749.035736,42.5713971 749.035736,39.5803221 C749.035736,31.0088833 755.464315,23.3749456 765.732184,23.3749456 C774.839338,23.3749456 779.839344,28.9106665 779.839344,36.3660325 C779.839344,46.1428299 775.508982,54.4017683 769.080403,54.4017683 C765.553613,54.4017683 762.875038,51.4553362 763.723253,47.8392605 C764.75004,43.5535411 766.714328,38.9106784 766.714328,35.8303176 C766.714328,33.0624572 765.241112,30.7410258 762.160751,30.7410258 C758.544676,30.7410258 755.642887,34.4910303 755.642887,39.4910363 C755.642887,39.4910363 755.642887,42.7053258 756.714316,44.8928284 C753.008955,60.6071329 752.339311,63.3749933 752.339311,63.3749933 C751.357167,67.482141 751.758953,72.2589325 752.026811,74.7142925 L743.857158,74.7142925 C736.758935,74.7142925 731,68.9553571 731,61.8571343 L731,18.9999404 C731,11.9017176 736.758935,6.14278221 743.857158,6.14278221 L786.714352,6.14278221 Z" id="pinterest-square---FontAwesome" fill="#BD081C"></path>
        </g>
        <g id="Oval">
            <use fill="black" fill-opacity="1" filter="url(#filter-5)" xlink:href="#path-4"></use>
            <use fill="#FFFFFF" fill-rule="evenodd" xlink:href="#path-4"></use>
        </g>
        <rect id="Rectangle" fill="#FFFFFF" x="444" y="461" width="552" height="47"></rect>
    </g>
</svg>