<?xml version="1.0" encoding="UTF-8"?>
<svg width="1440px" height="1024px" viewBox="0 0 1440 1024" version="1.1" xmlns="http://www.w3.org/2000/svg" xmlns:xlink="http://www.w3.org/1999/xlink">
    <!-- Generator: Sketch 49 (51002) - http://www.bohemiancoding.com/sketch -->
    <title>Desktop HD</title>
    <desc>Created with Sketch.</desc>
    <defs>
        <radialGradient cx="50%" cy="65.7214002%" fx="50%" fy="65.7214002%" r="100%" gradientTransform="translate(0.500000,0.657214),scale(0.597453,1.000000),rotate(90.000000),scale(1.000000,1.363791),translate(-0.500000,-0.657214)" id="radialGradient-1">
            <stop stop-color="#000000" offset="0%"></stop>
            <stop stop-color="#B8B8B8" offset="100%"></stop>
        </radialGradient>
        <path d="M679.554745,318.146892 L678.028776,325.969658 C685.784112,319.594036 693.363582,316.665132 700.767415,317.182859 C707.262005,317.637005 713.006233,320.420761 718.00027,325.534212 L703.024468,342.30384 C699.298924,338.649624 695.45536,336.684031 691.49366,336.407002 C688.765932,336.216261 686.325503,336.584025 684.172301,337.510306 C682.019098,338.436586 680.0988,339.999131 678.411349,342.197986 C676.723899,344.396841 675.249704,347.279514 673.988721,350.846092 C672.727738,354.41267 671.627889,358.708348 670.689142,363.733255 L661.837164,409.124781 L640.307705,407.619295 L658.025286,316.641406 L679.554745,318.146892 Z M540.263054,329.617307 C534.813762,333.694475 529.014925,336.619069 525.173257,337.974096 C521.232454,339.264852 516.436978,339.712669 510.786684,339.317562 C497.927396,338.418353 487.703779,333.428755 480.115527,324.348618 C472.531816,315.203535 469.212322,303.87679 470.156946,290.368043 C471.16515,275.950053 476.484236,264.28107 486.114365,255.360744 C495.744494,246.440418 507.346231,242.454897 520.919925,243.404062 C527.869136,243.889998 533.630164,245.500205 538.20318,248.23473 C542.966493,251.047825 547.521543,255.153555 552.49878,261.440573 L570.320078,175.66426 L570.362051,175.667882 L581.982097,116 L603.511453,117.505479 L585.793926,208.483372 L585.740648,208.479647 L577.858774,248.877827 L577.767742,249.087028 L562.889113,325.343497 C568.834601,321.51712 573.935494,319.034891 578.191943,317.896734 C582.647772,316.707256 587.408505,316.289641 592.474286,316.643875 C604.943899,317.515835 614.937938,322.522011 622.456703,331.662552 C629.980009,340.738147 633.280655,351.867787 632.358738,365.051805 C631.345993,379.534741 625.892475,391.259586 615.998021,400.226692 C606.029538,409.319149 594.356044,413.397545 580.977188,412.462004 C568.507575,411.590044 557.932891,406.021166 549.252817,395.755202 L546.835791,407.920922 L525.306333,406.415435 L540.263054,329.617307 Z M751.91287,319.505485 L734.195289,410.483374 L712.66583,408.977887 L730.383411,317.999998 L751.91287,319.505485 Z M541.999136,289.182185 C542.544111,281.388677 540.581664,274.920988 536.111735,269.778923 C531.641806,264.636858 525.51018,261.793381 517.716672,261.248406 C509.273705,260.658016 502.071868,263.319646 496.110944,269.233374 C490.150021,275.147102 486.833541,282.909847 486.161405,292.52184 C485.593723,300.640077 487.507803,307.332803 491.903703,312.600218 C496.304144,317.802688 502.4335,320.678637 510.291954,321.228154 C518.475137,321.800378 525.623383,318.971845 531.736905,312.74247 C537.90629,306.647528 541.327,298.794179 541.999136,289.182185 Z M616.173154,363.942528 C616.745378,355.759345 614.777707,348.899715 610.270081,343.363433 C605.762455,337.827152 599.61198,334.786569 591.818472,334.241594 C583.375505,333.651204 576.175939,336.280361 570.219557,342.129143 C564.272258,347.848034 560.96032,355.545833 560.283642,365.222773 C559.71596,373.34101 561.63004,380.033736 566.02594,385.301151 C570.412756,390.698458 576.40541,393.662742 584.004081,394.194093 C592.382102,394.779942 599.648884,392.122854 605.804645,386.22275 C612.090297,380.331729 615.546433,372.905062 616.173154,363.942528 Z M758.437252,289.30905 C758.219262,292.426453 756.894258,295.042194 754.4622,297.156349 C752.030142,299.270504 749.222981,300.216302 746.040632,299.993771 C742.858283,299.771239 740.179869,298.409221 738.005309,295.907676 C735.904778,293.280781 734.965792,290.376202 735.188323,287.193853 C735.410855,284.011504 736.703386,281.393493 739.065957,279.339742 C741.498014,277.225587 744.272703,276.277518 747.390106,276.495508 C750.572456,276.71804 753.248599,278.11253 755.418618,280.679021 C757.658123,283.185108 758.664325,286.061755 758.437252,289.30905 Z M811.338917,246.798233 L795.623488,327.343497 C801.568976,323.51712 806.669869,321.034891 810.926318,319.896734 C815.382147,318.707256 820.14288,318.289641 825.208661,318.643875 C837.678274,319.515835 847.672313,324.522011 855.191078,333.662552 C862.714384,342.738147 866.01503,353.867787 865.093113,367.051805 C864.080368,381.534741 858.62685,393.259586 848.732396,402.226692 C838.763913,411.319149 827.090419,415.397545 813.711563,414.462004 C801.24195,413.590044 790.667266,408.021166 781.987192,397.755202 L779.570166,409.920922 L758.040708,408.415435 L789.809459,245.292746 L811.338917,246.798233 Z M848.907529,365.942528 C849.479753,357.759345 847.512082,350.899715 843.004456,345.363433 C838.49683,339.827152 832.346355,336.786569 824.552847,336.241594 C816.10988,335.651204 808.910314,338.280361 802.953932,344.129143 C797.006633,349.848034 793.694695,357.545833 793.018017,367.222773 C792.450335,375.34101 794.364415,382.033736 798.760315,387.301151 C803.147131,392.698458 809.139785,395.662742 816.738456,396.194093 C825.116477,396.779942 832.383259,394.122854 838.53902,388.22275 C844.824672,382.331729 848.280808,374.905062 848.907529,365.942528 Z M897.837266,370.214143 C897.364954,376.968516 899.314682,382.684798 903.686509,387.363158 C908.123282,392.04606 914.011024,394.644064 921.349911,395.157249 C931.416525,395.861176 939.408372,392.634795 945.325691,385.478012 L960.779815,395.467089 C954.667658,402.610248 948.55218,407.468874 942.433196,410.043112 C936.244724,412.677755 928.669335,413.681701 919.706801,413.05498 C905.483648,412.0604 894.443678,407.078979 886.586559,398.110568 C878.729441,389.142157 875.29141,377.643967 876.272366,363.615653 C877.298736,348.937879 882.800621,336.987997 892.778187,327.765649 C902.686265,318.603705 914.686755,314.515543 928.780015,315.50104 C942.418654,316.454747 952.858225,321.622602 960.09904,331.004761 C967.465206,340.460949 970.625974,352.657639 969.581438,367.595196 C969.472443,369.153897 969.197911,371.679938 968.757835,375.173392 L897.837266,370.214143 Z M949.028964,356.233796 C947.745896,341.916639 940.415044,334.290404 927.036188,333.354863 C914.371737,332.469279 905.62872,338.971519 900.806874,352.861779 L949.028964,356.233796 Z" id="path-2"></path>
        <filter x="-0.0%" y="-0.0%" width="100.0%" height="100.0%" filterUnits="objectBoundingBox" id="filter-3">
            <feGaussianBlur stdDeviation="0" in="SourceGraphic"></feGaussianBlur>
        </filter>
        <filter x="-3.3%" y="-5.5%" width="106.6%" height="111.1%" filterUnits="objectBoundingBox" id="filter-4">
            <feGaussianBlur stdDeviation="1.5" in="SourceAlpha" result="shadowBlurInner1"></feGaussianBlur>
            <feOffset dx="-30" dy="1" in="shadowBlurInner1" result="shadowOffsetInner1"></feOffset>
            <feComposite in="shadowOffsetInner1" in2="SourceAlpha" operator="arithmetic" k2="-1" k3="1" result="shadowInnerInner1"></feComposite>
            <feColorMatrix values="0 0 0 0 0.577008929   0 0 0 0 0.577008929   0 0 0 0 0.577008929  0 0 0 0.5 0" type="matrix" in="shadowInnerInner1"></feColorMatrix>
        </filter>
        <filter x="-3.3%" y="-5.5%" width="106.6%" height="111.1%" filterUnits="objectBoundingBox" id="filter-5">
            <feGaussianBlur stdDeviation="1.5" in="SourceAlpha" result="shadowBlurInner1"></feGaussianBlur>
            <feOffset dx="-30" dy="1" in="shadowBlurInner1" result="shadowOffsetInner1"></feOffset>
            <feComposite in="shadowOffsetInner1" in2="SourceAlpha" operator="arithmetic" k2="-1" k3="1" result="shadowInnerInner1"></feComposite>
            <feColorMatrix values="0 0 0 0 0.577008929   0 0 0 0 0.577008929   0 0 0 0 0.577008929  0 0 0 0.5 0" type="matrix" in="shadowInnerInner1"></feColorMatrix>
        </filter>
        <linearGradient x1="45.3715028%" y1="2.2102363%" x2="13.1335393%" y2="94.6682255%" id="linearGradient-6">
            <stop stop-color="#5555CE" offset="0%"></stop>
            <stop stop-color="#BD309F" offset="51.7589415%"></stop>
            <stop stop-color="#E02F74" offset="75.1576261%"></stop>
            <stop stop-color="#FFD879" offset="100%"></stop>
        </linearGradient>
        <ellipse id="path-7" cx="720" cy="507.5" rx="250" ry="4.5"></ellipse>
        <filter x="-4.5%" y="-250.0%" width="109.0%" height="600.0%" filterUnits="objectBoundingBox" id="filter-8">
            <feOffset dx="0" dy="0" in="SourceAlpha" result="shadowOffsetOuter1"></feOffset>
            <feGaussianBlur stdDeviation="7.5" in="shadowOffsetOuter1" result="shadowBlurOuter1"></feGaussianBlur>
            <feColorMatrix values="0 0 0 0 0   0 0 0 0 0   0 0 0 0 0  0 0 0 0.5 0" type="matrix" in="shadowBlurOuter1"></feColorMatrix>
        </filter>
    </defs>
    <g id="Desktop-HD" stroke="none" stroke-width="1" fill="none" fill-rule="evenodd">
        <g id="dbribe" filter="url(#filter-3)">
            <use fill="url(#radialGradient-1)" fill-rule="evenodd" xlink:href="#path-2"></use>
            <use fill="black" fill-opacity="1" filter="url(#filter-4)" xlink:href="#path-2"></use>
            <use fill="black" fill-opacity="1" filter="url(#filter-5)" xlink:href="#path-2"></use>
        </g>
        <g id="Group" transform="translate(260.000000, 650.000000)">
            <text id="youtube-play---FontAwesome" font-family="FontAwesome" font-size="80" font-weight="normal" fill="#FF0002">
                <tspan x="0" y="69"></tspan>
            </text>
            <text id="linkedin-square---FontAwesome" font-family="FontAwesome" font-size="80" font-weight="normal" fill="#0076B5">
                <tspan x="131" y="69"></tspan>
            </text>
            <text id="facebook-square---FontAwesome" font-family="FontAwesome" font-size="80" font-weight="normal" fill="#3B5898">
                <tspan x="251" y="69"></tspan>
            </text>
            <path d="M416.71434,40.4285374 C416.71434,34.133887 411.580406,28.9999523 405.285755,28.9999523 C398.991105,28.9999523 393.85717,34.133887 393.85717,40.4285374 C393.85717,46.7231877 398.991105,51.8571224 405.285755,51.8571224 C411.580406,51.8571224 416.71434,46.7231877 416.71434,40.4285374 Z M422.875062,40.4285374 C422.875062,50.1606918 415.01791,58.0178441 405.285755,58.0178441 C395.553601,58.0178441 387.696448,50.1606918 387.696448,40.4285374 C387.696448,30.6963829 395.553601,22.8392307 405.285755,22.8392307 C415.01791,22.8392307 422.875062,30.6963829 422.875062,40.4285374 Z M427.696496,22.1249441 C427.696496,24.4017325 425.866137,26.2320919 423.589348,26.2320919 C421.31256,26.2320919 419.482201,24.4017325 419.482201,22.1249441 C419.482201,19.8481557 421.31256,18.0177964 423.589348,18.0177964 C425.866137,18.0177964 427.696496,19.8481557 427.696496,22.1249441 Z M405.285755,12.3035038 C400.285749,12.3035038 389.571451,11.9017176 385.062517,13.6874341 C383.500015,14.3124348 382.339299,15.0713643 381.133941,16.2767229 C379.928582,17.4820814 379.169653,18.6427971 378.544652,20.205299 C376.758935,24.7142329 377.160722,35.4285314 377.160722,40.4285374 C377.160722,45.4285433 376.758935,56.1428418 378.544652,60.6517758 C379.169653,62.2142776 379.928582,63.3749933 381.133941,64.5803519 C382.339299,65.7857105 383.500015,66.5446399 385.062517,67.1696407 C389.571451,68.9553571 400.285749,68.5535709 405.285755,68.5535709 C410.285761,68.5535709 421.00006,68.9553571 425.508994,67.1696407 C427.071495,66.5446399 428.232211,65.7857105 429.43757,64.5803519 C430.642928,63.3749933 431.401858,62.2142776 432.026858,60.6517758 C433.812575,56.1428418 433.410789,45.4285433 433.410789,40.4285374 C433.410789,35.4285314 433.812575,24.7142329 432.026858,20.205299 C431.401858,18.6427971 430.642928,17.4820814 429.43757,16.2767229 C428.232211,15.0713643 427.071495,14.3124348 425.508994,13.6874341 C421.00006,11.9017176 410.285761,12.3035038 405.285755,12.3035038 Z M439.57151,40.4285374 C439.57151,45.1606859 439.616153,49.8481915 439.348296,54.58034 C439.080438,60.0714179 437.830437,64.9374952 433.812575,68.9553571 C429.794713,72.973219 424.928636,74.2232205 419.437558,74.491078 C414.705409,74.7589354 410.017904,74.7142925 405.285755,74.7142925 C400.553607,74.7142925 395.866101,74.7589354 391.133953,74.491078 C385.642875,74.2232205 380.776797,72.973219 376.758935,68.9553571 C372.741074,64.9374952 371.491072,60.0714179 371.223215,54.58034 C370.955357,49.8481915 371,45.1606859 371,40.4285374 C371,35.6963889 370.955357,31.0088833 371.223215,26.2767348 C371.491072,20.7856568 372.741074,15.9195796 376.758935,11.9017176 C380.776797,7.88385572 385.642875,6.63385423 391.133953,6.36599676 C395.866101,6.0981393 400.553607,6.14278221 405.285755,6.14278221 C410.017904,6.14278221 414.705409,6.0981393 419.437558,6.36599676 C424.928636,6.63385423 429.794713,7.88385572 433.812575,11.9017176 C437.830437,15.9195796 439.080438,20.7856568 439.348296,26.2767348 C439.616153,31.0088833 439.57151,35.6963889 439.57151,40.4285374 Z" id="instagram---FontAwesome" fill="url(#linearGradient-6)"></path>
            <text id="twitter-square---FontAwesome" font-family="FontAwesome" font-size="80" font-weight="normal" fill="#1EA1F3">
                <tspan x="491" y="69"></tspan>
            </text>
            <text id="github---FontAwesome" font-family="FontAwesome" font-size="80" font-weight="normal" fill="#000000">
                <tspan x="851" y="69"></tspan>
            </text>
            <g id="medium" transform="translate(611.000000, 6.000000)" fill="#000000" fill-rule="nonzero">
                <path d="M0,0 L0,69 L69,69 L69,0 L0,0 Z M57.3254464,16.3412946 L53.6290179,19.8837054 C53.3055804,20.1301339 53.1515625,20.5305804 53.2131696,20.915625 L53.2131696,46.9908482 C53.1515625,47.3912946 53.3055804,47.7917411 53.6290179,48.0227679 L57.2484375,51.5651786 L57.2484375,52.3506696 L39.0743304,52.3506696 L39.0743304,51.5959821 L42.8169643,47.9611607 C43.1866071,47.5915179 43.1866071,47.4837054 43.1866071,46.9292411 L43.1866071,25.8441964 L32.775,52.2736607 L31.3734375,52.2736607 L19.2522321,25.8441964 L19.2522321,43.55625 C19.1444196,44.2955357 19.40625,45.0502232 19.9299107,45.5892857 L24.796875,51.4881696 L24.796875,52.2736607 L10.9660714,52.2736607 L10.9660714,51.4881696 L15.8330357,45.5892857 C16.3566964,45.0502232 16.5877232,44.2955357 16.4645089,43.55625 L16.4645089,23.071875 C16.5261161,22.5020089 16.3104911,21.9475446 15.8792411,21.5625 L11.5513393,16.3412946 L11.5513393,15.5558036 L24.9970982,15.5558036 L35.3779018,38.3504464 L44.5111607,15.5712054 L57.3254464,15.5712054 L57.3254464,16.3412946 Z" id="Shape"></path>
            </g>
            <text id="pinterest-square---FontAwesome" font-family="FontAwesome" font-size="80" font-weight="normal" fill="#BD081C">
                <tspan x="731" y="69"></tspan>
            </text>
        </g>
        <g id="Oval">
            <use fill="black" fill-opacity="1" filter="url(#filter-8)" xlink:href="#path-7"></use>
            <use fill="#FFFFFF" fill-rule="evenodd" xlink:href="#path-7"></use>
        </g>
        <rect id="Rectangle" fill="#FFFFFF" x="444" y="461" width="552" height="47"></rect>
    </g>
</svg>