<?xml version="1.0" encoding="UTF-8"?>
<svg width="500px" height="299px" viewBox="0 0 500 299" version="1.1" xmlns="http://www.w3.org/2000/svg" xmlns:xlink="http://www.w3.org/1999/xlink">
    <!-- Generator: Sketch 49 (51002) - http://www.bohemiancoding.com/sketch -->
    <title>Group 2</title>
    <desc>Created with Sketch.</desc>
    <defs>
        <path d="M209.554745,202.146892 L208.028776,209.969658 C215.784112,203.594036 223.363582,200.665132 230.767415,201.182859 C237.262005,201.637005 243.006233,204.420761 248.00027,209.534212 L233.024468,226.30384 C229.298924,222.649624 225.45536,220.684031 221.49366,220.407002 C218.765932,220.216261 216.325503,220.584025 214.172301,221.510306 C212.019098,222.436586 210.0988,223.999131 208.411349,226.197986 C206.723899,228.396841 205.249704,231.279514 203.988721,234.846092 C202.727738,238.41267 201.627889,242.708348 200.689142,247.733255 L191.837164,293.124781 L170.307705,291.619295 L188.025286,200.641406 L209.554745,202.146892 Z M70.2630542,213.617307 C64.8137621,217.694475 59.014925,220.619069 55.1732572,221.974096 C51.232454,223.264852 46.4369777,223.712669 40.7866843,223.317562 C27.9273959,222.418353 17.7037789,217.428755 10.1155267,208.348618 C2.53181583,199.203535 -0.787677964,187.87679 0.156945674,174.368043 C1.16514975,159.950053 6.48423646,148.28107 16.1143654,139.360744 C25.7444943,130.440418 37.3462314,126.454897 50.9199247,127.404062 C57.8691361,127.889998 63.6301637,129.500205 68.2031805,132.23473 C72.9664935,135.047825 77.5215431,139.153555 82.49878,145.440573 L100.320078,59.6642596 L100.362051,59.667882 L111.982097,-3.21964677e-15 L133.511453,1.50547924 L115.793926,92.4833721 L115.740648,92.4796465 L107.858774,132.877827 L107.767742,133.087028 L92.8891128,209.343497 C98.834601,205.51712 103.935494,203.034891 108.191943,201.896734 C112.647772,200.707256 117.408505,200.289641 122.474286,200.643875 C134.943899,201.515835 144.937938,206.522011 152.456703,215.662552 C159.980009,224.738147 163.280655,235.867787 162.358738,249.051805 C161.345993,263.534741 155.892475,275.259586 145.998021,284.226692 C136.029538,293.319149 124.356044,297.397545 110.977188,296.462004 C98.5075753,295.590044 87.9328906,290.021166 79.2528169,279.755202 L76.8357914,291.920922 L55.3063329,290.415435 L70.2630542,213.617307 Z M281.91287,203.505485 L264.195289,294.483374 L242.66583,292.977887 L260.383411,201.999998 L281.91287,203.505485 Z M71.9991358,173.182185 C72.544111,165.388677 70.5816637,158.920988 66.111735,153.778923 C61.6418064,148.636858 55.51018,145.793381 47.7166719,145.248406 C39.2737048,144.658016 32.0718676,147.319646 26.1109445,153.233374 C20.1500213,159.147102 16.8335414,166.909847 16.1614054,176.52184 C15.5937229,184.640077 17.5078029,191.332803 21.9037027,196.600218 C26.304144,201.802688 32.4334997,204.678637 40.2919537,205.228154 C48.4751372,205.800378 55.6233829,202.971845 61.7369051,196.74247 C67.9062904,190.647528 71.3269997,182.794179 71.9991358,173.182185 Z M146.173154,247.942528 C146.745378,239.759345 144.777707,232.899715 140.270081,227.363433 C135.762455,221.827152 129.61198,218.786569 121.818472,218.241594 C113.375505,217.651204 106.175939,220.280361 100.219557,226.129143 C94.2722582,231.848034 90.9603197,239.545833 90.2836422,249.222773 C89.7159597,257.34101 91.6300397,264.033736 96.0259395,269.301151 C100.412756,274.698458 106.40541,277.662742 114.004081,278.194093 C122.382102,278.779942 129.648884,276.122854 135.804645,270.22275 C142.090297,264.331729 145.546433,256.905062 146.173154,247.942528 Z M288.437252,173.30905 C288.219262,176.426453 286.894258,179.042194 284.4622,181.156349 C282.030142,183.270504 279.222981,184.216302 276.040632,183.993771 C272.858283,183.771239 270.179869,182.409221 268.005309,179.907676 C265.904778,177.280781 264.965792,174.376202 265.188323,171.193853 C265.410855,168.011504 266.703386,165.393493 269.065957,163.339742 C271.498014,161.225587 274.272703,160.277518 277.390106,160.495508 C280.572456,160.71804 283.248599,162.11253 285.418618,164.679021 C287.658123,167.185108 288.664325,170.061755 288.437252,173.30905 Z M341.338917,130.798233 L325.623488,211.343497 C331.568976,207.51712 336.669869,205.034891 340.926318,203.896734 C345.382147,202.707256 350.14288,202.289641 355.208661,202.643875 C367.678274,203.515835 377.672313,208.522011 385.191078,217.662552 C392.714384,226.738147 396.01503,237.867787 395.093113,251.051805 C394.080368,265.534741 388.62685,277.259586 378.732396,286.226692 C368.763913,295.319149 357.090419,299.397545 343.711563,298.462004 C331.24195,297.590044 320.667266,292.021166 311.987192,281.755202 L309.570166,293.920922 L288.040708,292.415435 L319.809459,129.292746 L341.338917,130.798233 Z M378.907529,249.942528 C379.479753,241.759345 377.512082,234.899715 373.004456,229.363433 C368.49683,223.827152 362.346355,220.786569 354.552847,220.241594 C346.10988,219.651204 338.910314,222.280361 332.953932,228.129143 C327.006633,233.848034 323.694695,241.545833 323.018017,251.222773 C322.450335,259.34101 324.364415,266.033736 328.760315,271.301151 C333.147131,276.698458 339.139785,279.662742 346.738456,280.194093 C355.116477,280.779942 362.383259,278.122854 368.53902,272.22275 C374.824672,266.331729 378.280808,258.905062 378.907529,249.942528 Z M427.837266,254.214143 C427.364954,260.968516 429.314682,266.684798 433.686509,271.363158 C438.123282,276.04606 444.011024,278.644064 451.349911,279.157249 C461.416525,279.861176 469.408372,276.634795 475.325691,269.478012 L490.779815,279.467089 C484.667658,286.610248 478.55218,291.468874 472.433196,294.043112 C466.244724,296.677755 458.669335,297.681701 449.706801,297.05498 C435.483648,296.0604 424.443678,291.078979 416.586559,282.110568 C408.729441,273.142157 405.29141,261.643967 406.272366,247.615653 C407.298736,232.937879 412.800621,220.987997 422.778187,211.765649 C432.686265,202.603705 444.686755,198.515543 458.780015,199.50104 C472.418654,200.454747 482.858225,205.622602 490.09904,215.004761 C497.465206,224.460949 500.625974,236.657639 499.581438,251.595196 C499.472443,253.153897 499.197911,255.679938 498.757835,259.173392 L427.837266,254.214143 Z M479.028964,240.233796 C477.745896,225.916639 470.415044,218.290404 457.036188,217.354863 C444.371737,216.469279 435.62872,222.971519 430.806874,236.861779 L479.028964,240.233796 Z" id="path-1"></path>
        <filter x="-0.0%" y="-0.0%" width="100.0%" height="100.0%" filterUnits="objectBoundingBox" id="filter-2">
            <feGaussianBlur stdDeviation="0" in="SourceGraphic"></feGaussianBlur>
        </filter>
    </defs>
    <g id="Page-1" stroke="none" stroke-width="1" fill="none" fill-rule="evenodd">
        <g id="Desktop-HD" transform="translate(-470.000000, -116.000000)">
            <g id="Group-2" transform="translate(470.000000, 116.000000)">
                <g id="dbribe" filter="url(#filter-2)">
                    <use fill="#353535" fill-rule="evenodd" xlink:href="#path-1"></use>
                </g>
            </g>
        </g>
    </g>
</svg>