<?xml version="1.0" encoding="UTF-8"?>
<svg width="661px" height="447px" viewBox="0 0 661 447" version="1.1" xmlns="http://www.w3.org/2000/svg" xmlns:xlink="http://www.w3.org/1999/xlink">
    <!-- Generator: Sketch 49 (51002) - http://www.bohemiancoding.com/sketch -->
    <title>Group 2</title>
    <desc>Created with Sketch.</desc>
    <defs>
        <path d="M35,0 L618,0 C637.329966,-3.55085719e-15 653,15.6700338 653,35 L653,404 C653,423.329966 637.329966,439 618,439 L35,439 C15.6700338,439 2.36723813e-15,423.329966 0,404 L0,35 C-2.36723813e-15,15.6700338 15.6700338,3.55085719e-15 35,0 Z M286.554745,249.146892 L285.028776,256.969658 C292.784112,250.594036 300.363582,247.665132 307.767415,248.182859 C314.262005,248.637005 320.006233,251.420761 325.00027,256.534212 L310.024468,273.30384 C306.298924,269.649624 302.45536,267.684031 298.49366,267.407002 C295.765932,267.216261 293.325503,267.584025 291.172301,268.510306 C289.019098,269.436586 287.0988,270.999131 285.411349,273.197986 C283.723899,275.396841 282.249704,278.279514 280.988721,281.846092 C279.727738,285.41267 278.627889,289.708348 277.689142,294.733255 L268.837164,340.124781 L247.307705,338.619295 L265.025286,247.641406 L286.554745,249.146892 Z M147.263054,260.617307 C141.813762,264.694475 136.014925,267.619069 132.173257,268.974096 C128.232454,270.264852 123.436978,270.712669 117.786684,270.317562 C104.927396,269.418353 94.7037789,264.428755 87.1155267,255.348618 C79.5318158,246.203535 76.212322,234.87679 77.1569457,221.368043 C78.1651497,206.950053 83.4842365,195.28107 93.1143654,186.360744 C102.744494,177.440418 114.346231,173.454897 127.919925,174.404062 C134.869136,174.889998 140.630164,176.500205 145.20318,179.23473 C149.966493,182.047825 154.521543,186.153555 159.49878,192.440573 L177.320078,106.66426 L177.362051,106.667882 L188.982097,47 L210.511453,48.5054792 L192.793926,139.483372 L192.740648,139.479647 L184.858774,179.877827 L184.767742,180.087028 L169.889113,256.343497 C175.834601,252.51712 180.935494,250.034891 185.191943,248.896734 C189.647772,247.707256 194.408505,247.289641 199.474286,247.643875 C211.943899,248.515835 221.937938,253.522011 229.456703,262.662552 C236.980009,271.738147 240.280655,282.867787 239.358738,296.051805 C238.345993,310.534741 232.892475,322.259586 222.998021,331.226692 C213.029538,340.319149 201.356044,344.397545 187.977188,343.462004 C175.507575,342.590044 164.932891,337.021166 156.252817,326.755202 L153.835791,338.920922 L132.306333,337.415435 L147.263054,260.617307 Z M358.91287,250.505485 L341.195289,341.483374 L319.66583,339.977887 L337.383411,248.999998 L358.91287,250.505485 Z M148.999136,220.182185 C149.544111,212.388677 147.581664,205.920988 143.111735,200.778923 C138.641806,195.636858 132.51018,192.793381 124.716672,192.248406 C116.273705,191.658016 109.071868,194.319646 103.110944,200.233374 C97.1500213,206.147102 93.8335414,213.909847 93.1614054,223.52184 C92.5937229,231.640077 94.5078029,238.332803 98.9037027,243.600218 C103.304144,248.802688 109.4335,251.678637 117.291954,252.228154 C125.475137,252.800378 132.623383,249.971845 138.736905,243.74247 C144.90629,237.647528 148.327,229.794179 148.999136,220.182185 Z M223.173154,294.942528 C223.745378,286.759345 221.777707,279.899715 217.270081,274.363433 C212.762455,268.827152 206.61198,265.786569 198.818472,265.241594 C190.375505,264.651204 183.175939,267.280361 177.219557,273.129143 C171.272258,278.848034 167.96032,286.545833 167.283642,296.222773 C166.71596,304.34101 168.63004,311.033736 173.02594,316.301151 C177.412756,321.698458 183.40541,324.662742 191.004081,325.194093 C199.382102,325.779942 206.648884,323.122854 212.804645,317.22275 C219.090297,311.331729 222.546433,303.905062 223.173154,294.942528 Z M365.437252,220.30905 C365.219262,223.426453 363.894258,226.042194 361.4622,228.156349 C359.030142,230.270504 356.222981,231.216302 353.040632,230.993771 C349.858283,230.771239 347.179869,229.409221 345.005309,226.907676 C342.904778,224.280781 341.965792,221.376202 342.188323,218.193853 C342.410855,215.011504 343.703386,212.393493 346.065957,210.339742 C348.498014,208.225587 351.272703,207.277518 354.390106,207.495508 C357.572456,207.71804 360.248599,209.11253 362.418618,211.679021 C364.658123,214.185108 365.664325,217.061755 365.437252,220.30905 Z M418.338917,177.798233 L402.623488,258.343497 C408.568976,254.51712 413.669869,252.034891 417.926318,250.896734 C422.382147,249.707256 427.14288,249.289641 432.208661,249.643875 C444.678274,250.515835 454.672313,255.522011 462.191078,264.662552 C469.714384,273.738147 473.01503,284.867787 472.093113,298.051805 C471.080368,312.534741 465.62685,324.259586 455.732396,333.226692 C445.763913,342.319149 434.090419,346.397545 420.711563,345.462004 C408.24195,344.590044 397.667266,339.021166 388.987192,328.755202 L386.570166,340.920922 L365.040708,339.415435 L396.809459,176.292746 L418.338917,177.798233 Z M455.907529,296.942528 C456.479753,288.759345 454.512082,281.899715 450.004456,276.363433 C445.49683,270.827152 439.346355,267.786569 431.552847,267.241594 C423.10988,266.651204 415.910314,269.280361 409.953932,275.129143 C404.006633,280.848034 400.694695,288.545833 400.018017,298.222773 C399.450335,306.34101 401.364415,313.033736 405.760315,318.301151 C410.147131,323.698458 416.139785,326.662742 423.738456,327.194093 C432.116477,327.779942 439.383259,325.122854 445.53902,319.22275 C451.824672,313.331729 455.280808,305.905062 455.907529,296.942528 Z M504.837266,301.214143 C504.364954,307.968516 506.314682,313.684798 510.686509,318.363158 C515.123282,323.04606 521.011024,325.644064 528.349911,326.157249 C538.416525,326.861176 546.408372,323.634795 552.325691,316.478012 L567.779815,326.467089 C561.667658,333.610248 555.55218,338.468874 549.433196,341.043112 C543.244724,343.677755 535.669335,344.681701 526.706801,344.05498 C512.483648,343.0604 501.443678,338.078979 493.586559,329.110568 C485.729441,320.142157 482.29141,308.643967 483.272366,294.615653 C484.298736,279.937879 489.800621,267.987997 499.778187,258.765649 C509.686265,249.603705 521.686755,245.515543 535.780015,246.50104 C549.418654,247.454747 559.858225,252.622602 567.09904,262.004761 C574.465206,271.460949 577.625974,283.657639 576.581438,298.595196 C576.472443,300.153897 576.197911,302.679938 575.757835,306.173392 L504.837266,301.214143 Z M556.028964,287.233796 C554.745896,272.916639 547.415044,265.290404 534.036188,264.354863 C521.371737,263.469279 512.62872,269.971519 507.806874,283.861779 L556.028964,287.233796 Z" id="path-1"></path>
        <filter x="-0.3%" y="-0.2%" width="101.2%" height="101.8%" filterUnits="objectBoundingBox" id="filter-2">
            <feGaussianBlur stdDeviation="0" in="SourceGraphic"></feGaussianBlur>
        </filter>
        <filter x="-0.8%" y="-1.0%" width="102.3%" height="103.4%" filterUnits="objectBoundingBox" id="filter-3">
            <feOffset dx="2" dy="3" in="SourceAlpha" result="shadowOffsetOuter1"></feOffset>
            <feGaussianBlur stdDeviation="2" in="shadowOffsetOuter1" result="shadowBlurOuter1"></feGaussianBlur>
            <feComposite in="shadowBlurOuter1" in2="SourceAlpha" operator="out" result="shadowBlurOuter1"></feComposite>
            <feColorMatrix values="0 0 0 0 0   0 0 0 0 0   0 0 0 0 0  0 0 0 0.5 0" type="matrix" in="shadowBlurOuter1"></feColorMatrix>
        </filter>
    </defs>
    <g id="Page-1" stroke="none" stroke-width="1" fill="none" fill-rule="evenodd">
        <g id="Desktop-HD" transform="translate(-391.000000, -68.000000)">
            <g id="Group-2" transform="translate(393.000000, 69.000000)">
                <g id="Rectangle-2" filter="url(#filter-2)">
                    <use fill="black" fill-opacity="1" filter="url(#filter-3)" xlink:href="#path-1"></use>
                    <use fill="#1C1C1C" fill-rule="evenodd" xlink:href="#path-1"></use>
                    <path stroke="#4B4949" stroke-width="2" d="M35,1 C16.2223185,1 1,16.2223185 1,35 L1,404 C1,422.777681 16.2223185,438 35,438 L618,438 C636.777681,438 652,422.777681 652,404 L652,35 C652,16.2223185 636.777681,1 618,1 L35,1 Z M286.523916,254.527984 C293.732768,249.157564 300.842234,246.696161 307.837172,247.185295 C314.582925,247.657004 320.554537,250.550955 325.715681,255.835508 L326.368248,256.503678 L310.072341,274.751537 L309.324229,274.017748 C305.757777,270.519578 302.128603,268.663624 298.423904,268.404566 C295.849383,268.224538 293.567916,268.568347 291.567474,269.428912 C289.578705,270.284455 287.792209,271.738125 286.204666,273.806795 C284.586917,275.914824 283.159722,278.705593 281.931529,282.179427 C280.689256,285.693085 279.601968,289.939705 278.670653,294.924663 L269.649435,341.184023 L246.110007,339.537986 L264.212786,246.582148 L287.752795,248.228226 L286.523916,254.527984 Z M183.898211,179.579052 L183.941824,179.478826 L184.858774,179.877827 L183.87728,179.686333 L183.898211,179.579052 Z M145.800343,262.896716 C141.290326,265.999236 136.39245,268.546255 132.484522,269.924419 C128.409885,271.25901 123.487714,271.718659 117.716928,271.315126 C104.592599,270.397384 94.1152372,265.283946 86.345768,255.986953 C78.5915431,246.63625 75.1974269,235.054879 76.1593816,221.298286 C77.1848736,206.633068 82.6129018,194.725089 92.4348122,185.627118 C102.269649,176.517172 114.143242,172.438261 127.989681,173.406498 C135.086394,173.902749 140.998091,175.555067 145.711697,178.373677 C150.254877,181.056767 154.502938,184.823128 158.948388,190.173745 L176.521578,105.591628 L176.552343,105.594283 L188.169596,45.9407425 L211.70915,47.5867885 L193.606427,140.54263 L193.552841,140.538883 L185.840268,180.069321 L185.775724,180.276829 L185.728303,180.385807 L171.312978,254.267733 C176.509271,251.083667 181.045449,248.970356 184.934026,247.930567 C189.499337,246.711863 194.370623,246.28455 199.544042,246.64631 C212.283533,247.537142 222.532973,252.671253 230.226577,262.024357 C237.919479,271.30454 241.295617,282.688738 240.356302,296.121562 C239.325957,310.856179 233.759861,322.823064 223.671918,331.965517 C213.501706,341.241974 201.55959,345.41422 187.907432,344.459568 C175.802954,343.613141 165.432227,338.429347 156.837861,328.942196 L154.644935,339.979944 L131.108627,338.334125 L145.800343,262.896716 Z M360.110568,249.586794 L342.007789,342.542631 L318.468133,340.896578 L336.570911,247.940741 L360.110568,249.586794 Z M148.001572,220.112429 C148.528704,212.574085 146.645849,206.368709 142.357025,201.434982 C138.068202,196.501256 132.185259,193.773102 124.646915,193.24597 C116.490703,192.675632 109.57116,195.232932 103.815235,200.943285 C98.0333874,206.679356 94.8147845,214.213004 94.1589694,223.591596 C93.6085247,231.463322 95.4495242,237.900516 99.6672082,242.954417 C103.885744,247.941827 109.762368,250.699192 117.36171,251.23059 C125.24746,251.782015 132.111196,249.066062 138.034103,243.031084 C144.02521,237.11227 147.345935,229.488466 148.001572,220.112429 Z M222.17559,294.872772 C222.730724,286.933981 220.835234,280.325986 216.494611,274.994818 C212.166158,269.678597 206.273198,266.765321 198.748716,266.239158 C190.590249,265.668662 183.671468,268.195281 177.912687,273.849956 C172.15263,279.388796 168.941299,286.852756 168.281206,296.292529 C167.730762,304.164255 169.571761,310.601449 173.801948,315.670428 C178.009544,320.847231 183.744423,323.684007 191.073837,324.196529 C199.169218,324.762613 206.159715,322.206548 212.120813,316.493109 C218.220203,310.776657 221.566265,303.58652 222.17559,294.872772 Z M366.434816,220.378807 C366.198163,223.763098 364.748778,226.624383 362.118259,228.911059 C359.486605,231.19872 356.41855,232.23242 352.970876,231.991335 C349.521058,231.7501 346.597323,230.263332 344.224297,227.532193 C341.969243,224.712054 340.950454,221.560618 341.190759,218.124097 C341.431694,214.678567 342.846094,211.813713 345.409898,209.585033 C348.040417,207.298357 351.075572,206.261292 354.459863,206.497944 C357.915583,206.739592 360.840413,208.263668 363.16427,211.012686 C365.582069,213.718289 366.680893,216.859737 366.434816,220.378807 Z M404.047353,256.267733 C409.243646,253.083667 413.779824,250.970356 417.668401,249.930567 C422.233712,248.711863 427.104998,248.28455 432.278417,248.64631 C445.017908,249.537142 455.267348,254.671253 462.960952,264.024357 C470.653854,273.30454 474.029992,284.688738 473.090677,298.121562 C472.060332,312.856179 466.494236,324.823064 456.406293,333.965517 C446.236081,343.241974 434.293965,347.41422 420.641807,346.459568 C408.537329,345.613141 398.166602,340.429347 389.572236,330.942196 L387.37931,341.979944 L363.843002,340.334125 L395.996965,175.233489 L419.537017,176.87957 L404.047353,256.267733 Z M454.909965,296.872772 C455.465099,288.933981 453.569609,282.325986 449.228986,276.994818 C444.900533,271.678597 439.007573,268.765321 431.483091,268.239158 C423.324624,267.668662 416.405843,270.195281 410.647062,275.849956 C404.887005,281.388796 401.675674,288.852756 401.015581,298.292529 C400.465137,306.164255 402.306136,312.601449 406.536323,317.670428 C410.743919,322.847231 416.478798,325.684007 423.808212,326.196529 C431.903593,326.762613 438.89409,324.206548 444.855188,318.493109 C450.954578,312.776657 454.30064,305.58652 454.909965,296.872772 Z M505.782992,302.282716 C505.580121,308.326723 507.454231,313.439616 511.412436,317.675386 C515.67033,322.169485 521.322124,324.663377 528.419667,325.159685 C538.171989,325.841634 545.848563,322.742533 551.555004,315.840798 L552.121675,315.155431 L569.283262,326.24816 L568.539626,327.117233 C562.333471,334.370246 556.098173,339.324066 549.824908,341.9632 C543.478626,344.665029 535.747523,345.689611 526.637044,345.052544 C512.162531,344.040387 500.874812,338.947178 492.834389,329.769537 C484.792864,320.590638 481.276036,308.828915 482.274802,294.545896 C483.318559,279.619476 488.930535,267.430482 499.099266,258.031438 C509.212584,248.679709 521.4848,244.498979 535.849771,245.503476 C549.762472,246.476347 560.467865,251.775791 567.887933,261.39023 C575.415876,271.054097 578.639819,283.494565 577.579002,298.664952 C577.468399,300.246656 577.192216,302.787887 576.749994,306.298376 L576.63176,307.236945 L505.782992,302.282716 Z M554.912696,286.153297 C553.390779,273.075174 546.474682,266.227089 533.966432,265.352427 C522.15504,264.526494 513.953355,270.32819 509.197498,282.956579 L554.912696,286.153297 Z"></path>
                </g>
            </g>
        </g>
    </g>
</svg>