<?xml version="1.0" encoding="UTF-8"?>
<svg width="69px" height="69px" viewBox="0 0 69 69" version="1.1" xmlns="http://www.w3.org/2000/svg" xmlns:xlink="http://www.w3.org/1999/xlink">
    <!-- Generator: Sketch 49 (51002) - http://www.bohemiancoding.com/sketch -->
    <title>facebook-square - FontAwesome</title>
    <desc>Created with Sketch.</desc>
    <defs></defs>
    <g id="Page-1" stroke="none" stroke-width="1" fill="none" fill-rule="evenodd">
        <g id="Desktop-HD" transform="translate(-511.000000, -656.000000)" fill="#3B5898">
            <g id="Group" transform="translate(260.000000, 656.000000)">
                <path d="M306.714352,0.142782211 C313.812575,0.142782211 319.57151,5.90171765 319.57151,12.9999404 L319.57151,55.8571343 C319.57151,62.9553571 313.812575,68.7142925 306.714352,68.7142925 L298.321485,68.7142925 L298.321485,42.1517609 L307.205424,42.1517609 L308.544711,31.7946057 L298.321485,31.7946057 L298.321485,25.1874549 C298.321485,22.1963799 299.125057,20.187449 303.45542,20.187449 L308.901855,20.1428061 L308.901855,10.9017236 C307.964354,10.7677949 304.705421,10.4999374 300.955417,10.4999374 C293.053622,10.4999374 287.607186,15.3213717 287.607186,24.160668 L287.607186,31.7946057 L278.678604,31.7946057 L278.678604,42.1517609 L287.607186,42.1517609 L287.607186,68.7142925 L263.857158,68.7142925 C256.758935,68.7142925 251,62.9553571 251,55.8571343 L251,12.9999404 C251,5.90171765 256.758935,0.142782211 263.857158,0.142782211 L306.714352,0.142782211 Z" id="facebook-square---FontAwesome"></path>
            </g>
        </g>
    </g>
</svg>