<?xml version="1.0" encoding="UTF-8"?>
<svg width="69px" height="67px" viewBox="0 0 69 67" version="1.1" xmlns="http://www.w3.org/2000/svg" xmlns:xlink="http://www.w3.org/1999/xlink">
    <!-- Generator: Sketch 49 (51002) - http://www.bohemiancoding.com/sketch -->
    <title>github - FontAwesome</title>
    <desc>Created with Sketch.</desc>
    <defs></defs>
    <g id="Page-1" stroke="none" stroke-width="1" fill="none" fill-rule="evenodd">
        <g id="Desktop-HD" transform="translate(-1111.000000, -656.000000)" fill="#000000">
            <g id="Group" transform="translate(260.000000, 656.000000)">
                <path d="M885.285755,0.142782211 C904.214349,0.142782211 919.57151,15.4999434 919.57151,34.4285374 C919.57151,49.562484 909.75007,62.4196422 896.133982,66.973219 C894.392909,67.2857194 893.767908,66.2142895 893.767908,65.3214313 C893.767908,64.2053586 893.812551,60.499997 893.812551,55.9017773 C893.812551,52.6874877 892.741121,50.6339138 891.49112,49.562484 C899.125057,48.7142687 907.160781,45.8124795 907.160781,32.642821 C907.160781,28.8928165 905.821494,25.8570986 903.633991,23.4463814 C903.991135,22.5535232 905.15185,19.0713762 903.276848,14.3392277 C900.419702,13.4463695 893.857194,17.8660176 893.857194,17.8660176 C891.133976,17.1070881 888.187544,16.705302 885.285755,16.705302 C882.383966,16.705302 879.437534,17.1070881 876.714316,17.8660176 C876.714316,17.8660176 870.151809,13.4463695 867.294662,14.3392277 C865.41966,19.0713762 866.580376,22.5535232 866.937519,23.4463814 C864.750016,25.8570986 863.410729,28.8928165 863.410729,32.642821 C863.410729,45.7678366 871.40181,48.7142687 879.035748,49.562484 C878.053604,50.4553422 877.160745,51.9732011 876.848245,54.1607037 C874.883957,55.053562 869.883951,56.5714209 866.892876,51.3035575 C865.017874,48.044625 861.625013,47.7767676 861.625013,47.7767676 C858.276794,47.7321247 861.401798,49.8749844 861.401798,49.8749844 C863.633944,50.9017713 865.196445,54.8749903 865.196445,54.8749903 C867.205376,60.991069 876.758959,58.9374952 876.758959,58.9374952 C876.758959,61.7946414 876.803602,64.473216 876.803602,65.3214313 C876.803602,66.2142895 876.178601,67.2857194 874.437528,66.973219 C860.82144,62.4196422 851,49.562484 851,34.4285374 C851,15.4999434 866.357161,0.142782211 885.285755,0.142782211 Z M863.991087,49.3839123 C863.901801,49.562484 863.633944,49.6071269 863.410729,49.4731982 C863.142872,49.3392694 863.008943,49.1160549 863.098229,48.9374832 C863.187515,48.8035545 863.410729,48.7589116 863.678587,48.8481974 C863.946444,48.9821261 864.080373,49.2053407 863.991087,49.3839123 Z M865.375017,50.9017713 C865.196445,51.0803429 864.883945,50.9910571 864.660731,50.7678426 C864.437516,50.4999851 864.392873,50.1874847 864.571445,50.053556 C864.750016,49.8749844 865.062517,49.9642702 865.285731,50.1874847 C865.508946,50.4553422 865.553589,50.7678426 865.375017,50.9017713 Z M866.714304,52.9107023 C866.535733,53.044631 866.17859,52.9107023 865.955375,52.5982019 C865.73216,52.2857015 865.73216,51.9285582 865.955375,51.7946295 C866.17859,51.6160579 866.535733,51.7499866 866.714304,52.062487 C866.937519,52.3749873 866.937519,52.7321306 866.714304,52.9107023 Z M868.589307,54.7857045 C868.410735,55.008919 868.008949,54.9642761 867.696448,54.6517758 C867.383948,54.3839183 867.294662,53.9821321 867.517877,53.8035605 C867.696448,53.5803459 868.098235,53.6249888 868.410735,53.9374892 C868.678593,54.2053467 868.767878,54.6071329 868.589307,54.7857045 Z M871.133953,55.9017773 C871.044667,56.1696347 870.642881,56.3035634 870.285737,56.1696347 C869.883951,56.0803489 869.616094,55.7678485 869.705379,55.4999911 C869.794665,55.2321336 870.196451,55.0982049 870.553595,55.1874907 C870.955381,55.3214194 871.223238,55.6339198 871.133953,55.9017773 Z M873.946456,56.1249918 C873.946456,56.3928493 873.633956,56.6160638 873.232169,56.6160638 C872.78574,56.6607067 872.47324,56.4374922 872.47324,56.1249918 C872.47324,55.8571343 872.78574,55.6339198 873.187526,55.6339198 C873.589313,55.5892769 873.946456,55.8124914 873.946456,56.1249918 Z M876.535745,55.6785627 C876.580388,55.9464202 876.31253,56.2142776 875.910744,56.3035634 C875.508958,56.3928493 875.151815,56.2142776 875.107172,55.9464202 C875.062529,55.6339198 875.330386,55.3660623 875.732172,55.2767765 C876.133959,55.2321336 876.491102,55.4107052 876.535745,55.6785627 Z" id="github---FontAwesome"></path>
            </g>
        </g>
    </g>
</svg>