<?xml version="1.0" encoding="UTF-8"?>
<svg width="69px" height="69px" viewBox="0 0 69 69" version="1.1" xmlns="http://www.w3.org/2000/svg" xmlns:xlink="http://www.w3.org/1999/xlink">
    <!-- Generator: Sketch 49 (51002) - http://www.bohemiancoding.com/sketch -->
    <title>instagram - FontAwesome</title>
    <desc>Created with Sketch.</desc>
    <defs>
        <radialGradient cx="33.7051342%" cy="89.0270678%" fx="33.7051342%" fy="89.0270678%" r="99.8695958%" id="radialGradient-1">
            <stop stop-color="#FFD879" offset="0%"></stop>
            <stop stop-color="#E02F74" offset="30.6493858%"></stop>
            <stop stop-color="#BD309F" offset="61.3642522%"></stop>
            <stop stop-color="#5555CE" offset="100%"></stop>
        </radialGradient>
    </defs>
    <g id="Page-1" stroke="none" stroke-width="1" fill="none" fill-rule="evenodd">
        <g id="Desktop-HD" transform="translate(-631.000000, -656.000000)" fill="url(#radialGradient-1)">
            <g id="Group" transform="translate(260.000000, 656.000000)">
                <path d="M416.71434,34.4285374 C416.71434,28.133887 411.580406,22.9999523 405.285755,22.9999523 C398.991105,22.9999523 393.85717,28.133887 393.85717,34.4285374 C393.85717,40.7231877 398.991105,45.8571224 405.285755,45.8571224 C411.580406,45.8571224 416.71434,40.7231877 416.71434,34.4285374 Z M422.875062,34.4285374 C422.875062,44.1606918 415.01791,52.0178441 405.285755,52.0178441 C395.553601,52.0178441 387.696448,44.1606918 387.696448,34.4285374 C387.696448,24.6963829 395.553601,16.8392307 405.285755,16.8392307 C415.01791,16.8392307 422.875062,24.6963829 422.875062,34.4285374 Z M427.696496,16.1249441 C427.696496,18.4017325 425.866137,20.2320919 423.589348,20.2320919 C421.31256,20.2320919 419.482201,18.4017325 419.482201,16.1249441 C419.482201,13.8481557 421.31256,12.0177964 423.589348,12.0177964 C425.866137,12.0177964 427.696496,13.8481557 427.696496,16.1249441 Z M405.285755,6.30350384 C400.285749,6.30350384 389.571451,5.90171765 385.062517,7.68743406 C383.500015,8.31243481 382.339299,9.07136428 381.133941,10.2767229 C379.928582,11.4820814 379.169653,12.6427971 378.544652,14.205299 C376.758935,18.7142329 377.160722,29.4285314 377.160722,34.4285374 C377.160722,39.4285433 376.758935,50.1428418 378.544652,54.6517758 C379.169653,56.2142776 379.928582,57.3749933 381.133941,58.5803519 C382.339299,59.7857105 383.500015,60.5446399 385.062517,61.1696407 C389.571451,62.9553571 400.285749,62.5535709 405.285755,62.5535709 C410.285761,62.5535709 421.00006,62.9553571 425.508994,61.1696407 C427.071495,60.5446399 428.232211,59.7857105 429.43757,58.5803519 C430.642928,57.3749933 431.401858,56.2142776 432.026858,54.6517758 C433.812575,50.1428418 433.410789,39.4285433 433.410789,34.4285374 C433.410789,29.4285314 433.812575,18.7142329 432.026858,14.205299 C431.401858,12.6427971 430.642928,11.4820814 429.43757,10.2767229 C428.232211,9.07136428 427.071495,8.31243481 425.508994,7.68743406 C421.00006,5.90171765 410.285761,6.30350384 405.285755,6.30350384 Z M439.57151,34.4285374 C439.57151,39.1606859 439.616153,43.8481915 439.348296,48.58034 C439.080438,54.0714179 437.830437,58.9374952 433.812575,62.9553571 C429.794713,66.973219 424.928636,68.2232205 419.437558,68.491078 C414.705409,68.7589354 410.017904,68.7142925 405.285755,68.7142925 C400.553607,68.7142925 395.866101,68.7589354 391.133953,68.491078 C385.642875,68.2232205 380.776797,66.973219 376.758935,62.9553571 C372.741074,58.9374952 371.491072,54.0714179 371.223215,48.58034 C370.955357,43.8481915 371,39.1606859 371,34.4285374 C371,29.6963889 370.955357,25.0088833 371.223215,20.2767348 C371.491072,14.7856568 372.741074,9.91957958 376.758935,5.90171765 C380.776797,1.88385572 385.642875,0.633854225 391.133953,0.365996763 C395.866101,0.0981393009 400.553607,0.142782211 405.285755,0.142782211 C410.017904,0.142782211 414.705409,0.0981393009 419.437558,0.365996763 C424.928636,0.633854225 429.794713,1.88385572 433.812575,5.90171765 C437.830437,9.91957958 439.080438,14.7856568 439.348296,20.2767348 C439.616153,25.0088833 439.57151,29.6963889 439.57151,34.4285374 Z" id="instagram---FontAwesome"></path>
            </g>
        </g>
    </g>
</svg>