<?xml version="1.0" encoding="UTF-8"?>
<svg width="69px" height="69px" viewBox="0 0 69 69" version="1.1" xmlns="http://www.w3.org/2000/svg" xmlns:xlink="http://www.w3.org/1999/xlink">
    <!-- Generator: Sketch 49 (51002) - http://www.bohemiancoding.com/sketch -->
    <title>linkedin-square - FontAwesome</title>
    <desc>Created with Sketch.</desc>
    <defs></defs>
    <g id="Page-1" stroke="none" stroke-width="1" fill="none" fill-rule="evenodd">
        <g id="Desktop-HD" transform="translate(-391.000000, -656.000000)" fill="#0076B5">
            <g id="Group" transform="translate(260.000000, 656.000000)">
                <path d="M141.58037,57.5535649 L151.892882,57.5535649 L151.892882,26.5713851 L141.58037,26.5713851 L141.58037,57.5535649 Z M152.562526,17.0178023 C152.517883,13.9820844 150.33038,11.6606531 146.80359,11.6606531 C143.2768,11.6606531 140.955369,13.9820844 140.955369,17.0178023 C140.955369,19.9642344 143.187515,22.3749516 146.669662,22.3749516 L146.714304,22.3749516 C150.33038,22.3749516 152.562526,19.9642344 152.562526,17.0178023 Z M167.875044,30.9387478 L167.875044,31.0803191 L167.785758,31.0803191 C167.814982,31.0335611 167.844737,30.9863567 167.875044,30.9387478 Z M167.875044,30.9387478 L167.875044,26.5713851 L157.562532,26.5713851 C157.562532,26.5713851 157.69646,29.4731743 157.562532,57.5535649 L167.875044,57.5535649 L167.875044,40.2321157 C167.875044,39.3392575 167.919687,38.4017564 168.187544,37.7321127 C168.946474,35.9017534 170.642904,33.9821083 173.500051,33.9821083 C177.205412,33.9821083 178.678628,36.7946116 178.678628,40.9910452 L178.678628,57.5535649 L188.991141,57.5535649 L188.991141,39.7856866 C188.991141,30.2767467 183.901849,25.8570986 177.116126,25.8570986 C171.701197,25.8570986 169.233666,28.8044968 167.875044,30.9387478 Z M199.57151,12.9999404 L199.57151,55.8571343 C199.57151,62.9553571 193.812575,68.7142925 186.714352,68.7142925 L143.857158,68.7142925 C136.758935,68.7142925 131,62.9553571 131,55.8571343 L131,12.9999404 C131,5.90171765 136.758935,0.142782211 143.857158,0.142782211 L186.714352,0.142782211 C193.812575,0.142782211 199.57151,5.90171765 199.57151,12.9999404 Z" id="linkedin-square---FontAwesome"></path>
            </g>
        </g>
    </g>
</svg>