<?xml version="1.0" encoding="UTF-8"?>
<svg width="69px" height="69px" viewBox="0 0 69 69" version="1.1" xmlns="http://www.w3.org/2000/svg" xmlns:xlink="http://www.w3.org/1999/xlink">
    <!-- Generator: Sketch 49 (51002) - http://www.bohemiancoding.com/sketch -->
    <title>medium</title>
    <desc>Created with Sketch.</desc>
    <defs></defs>
    <g id="Page-1" stroke="none" stroke-width="1" fill="none" fill-rule="evenodd">
        <g id="Desktop-HD" transform="translate(-871.000000, -656.000000)" fill="#000000" fill-rule="nonzero">
            <g id="Group" transform="translate(260.000000, 656.000000)">
                <path d="M611,0 L611,69 L680,69 L680,0 L611,0 Z M668.325446,16.3412946 L664.629018,19.8837054 C664.30558,20.1301339 664.151563,20.5305804 664.21317,20.915625 L664.21317,46.9908482 C664.151563,47.3912946 664.30558,47.7917411 664.629018,48.0227679 L668.248438,51.5651786 L668.248438,52.3506696 L650.07433,52.3506696 L650.07433,51.5959821 L653.816964,47.9611607 C654.186607,47.5915179 654.186607,47.4837054 654.186607,46.9292411 L654.186607,25.8441964 L643.775,52.2736607 L642.373438,52.2736607 L630.252232,25.8441964 L630.252232,43.55625 C630.14442,44.2955357 630.40625,45.0502232 630.929911,45.5892857 L635.796875,51.4881696 L635.796875,52.2736607 L621.966071,52.2736607 L621.966071,51.4881696 L626.833036,45.5892857 C627.356696,45.0502232 627.587723,44.2955357 627.464509,43.55625 L627.464509,23.071875 C627.526116,22.5020089 627.310491,21.9475446 626.879241,21.5625 L622.551339,16.3412946 L622.551339,15.5558036 L635.997098,15.5558036 L646.377902,38.3504464 L655.511161,15.5712054 L668.325446,15.5712054 L668.325446,16.3412946 Z" id="medium"></path>
            </g>
        </g>
    </g>
</svg>