<?xml version="1.0" encoding="UTF-8"?>
<svg width="69px" height="69px" viewBox="0 0 69 69" version="1.1" xmlns="http://www.w3.org/2000/svg" xmlns:xlink="http://www.w3.org/1999/xlink">
    <!-- Generator: Sketch 49 (51002) - http://www.bohemiancoding.com/sketch -->
    <title>pinterest-square - FontAwesome</title>
    <desc>Created with Sketch.</desc>
    <defs></defs>
    <g id="Page-1" stroke="none" stroke-width="1" fill="none" fill-rule="evenodd">
        <g id="Desktop-HD" transform="translate(-991.000000, -656.000000)" fill="#BD081C">
            <g id="Group" transform="translate(260.000000, 656.000000)">
                <path d="M786.714352,0.142782211 C793.812575,0.142782211 799.57151,5.90171765 799.57151,12.9999404 L799.57151,55.8571343 C799.57151,62.9553571 793.812575,68.7142925 786.714352,68.7142925 L754.348242,68.7142925 C755.821458,66.6160757 758.232175,63 759.169676,59.3392814 C759.169676,59.3392814 759.571463,57.8214224 761.535751,50.0089131 C762.741109,52.2857015 766.178613,54.2499896 769.839332,54.2499896 C780.732202,54.2499896 788.142925,44.2946206 788.142925,30.9910333 C788.142925,20.9463784 779.616129,11.5713673 766.669685,11.5713673 C750.553595,11.5713673 742.428585,23.133881 742.428585,32.7767497 C742.428585,38.580328 744.660731,43.7589056 749.392879,45.7231937 C750.151809,46.0356941 750.866095,45.7231937 751.08931,44.8749784 C751.223238,44.2946206 751.580382,42.7767616 751.758953,42.1517609 C751.982168,41.3035456 751.892882,40.9910452 751.267881,40.2767586 C749.928594,38.6249709 749.035736,36.5713971 749.035736,33.5803221 C749.035736,25.0088833 755.464315,17.3749456 765.732184,17.3749456 C774.839338,17.3749456 779.839344,22.9106665 779.839344,30.3660325 C779.839344,40.1428299 775.508982,48.4017683 769.080403,48.4017683 C765.553613,48.4017683 762.875038,45.4553362 763.723253,41.8392605 C764.75004,37.5535411 766.714328,32.9106784 766.714328,29.8303176 C766.714328,27.0624572 765.241112,24.7410258 762.160751,24.7410258 C758.544676,24.7410258 755.642887,28.4910303 755.642887,33.4910363 C755.642887,33.4910363 755.642887,36.7053258 756.714316,38.8928284 C753.008955,54.6071329 752.339311,57.3749933 752.339311,57.3749933 C751.357167,61.482141 751.758953,66.2589325 752.026811,68.7142925 L743.857158,68.7142925 C736.758935,68.7142925 731,62.9553571 731,55.8571343 L731,12.9999404 C731,5.90171765 736.758935,0.142782211 743.857158,0.142782211 L786.714352,0.142782211 Z" id="pinterest-square---FontAwesome"></path>
            </g>
        </g>
    </g>
</svg>