<?xml version="1.0" encoding="UTF-8"?>
<svg width="69px" height="69px" viewBox="0 0 69 69" version="1.1" xmlns="http://www.w3.org/2000/svg" xmlns:xlink="http://www.w3.org/1999/xlink">
    <!-- Generator: Sketch 49 (51002) - http://www.bohemiancoding.com/sketch -->
    <title>twitter-square - FontAwesome</title>
    <desc>Created with Sketch.</desc>
    <defs></defs>
    <g id="Page-1" stroke="none" stroke-width="1" fill="none" fill-rule="evenodd">
        <g id="Desktop-HD" transform="translate(-751.000000, -656.000000)" fill="#1EA1F3">
            <g id="Group" transform="translate(260.000000, 656.000000)">
                <path d="M548.142925,21.660665 C546.446495,22.4195945 544.660778,22.9106665 542.741133,23.178524 C544.705421,22.0178083 546.178637,20.1428061 546.892924,17.9553034 C545.062564,19.0267333 543.053633,19.8303057 540.910774,20.2320919 C539.214343,18.4017325 536.758983,17.2856598 534.080408,17.2856598 C528.901831,17.2856598 524.705397,21.4820934 524.705397,26.660671 C524.705397,27.3749575 524.75004,28.133887 524.928612,28.8035307 C517.116103,28.4017445 510.196451,24.6963829 505.553589,18.9820904 C504.750016,20.3660206 504.258944,22.0178083 504.258944,23.7142389 C504.258944,26.9731713 505.776803,29.8303176 508.321449,31.5267482 C506.758947,31.4821053 505.285731,31.0356762 503.857158,30.3660325 L503.857158,30.4553183 C503.857158,35.0088952 507.294662,38.8035426 511.580382,39.6517579 C510.776809,39.8749724 510.151809,40.0089012 509.303593,40.0089012 C508.723235,40.0089012 508.142878,39.9196153 507.56252,39.8303295 C508.767878,43.5356911 512.205382,46.2589086 516.31253,46.3481944 C513.098241,48.8481974 509.080379,50.3660564 504.660731,50.3660564 C503.901801,50.3660564 503.142872,50.3214135 502.428585,50.2321276 C506.580376,52.8660593 511.491096,54.4285612 516.803602,54.4285612 C534.035766,54.4285612 543.500063,40.1428299 543.500063,27.7321008 C543.500063,27.3303146 543.500063,26.9285284 543.45542,26.5267422 C545.285779,25.2320978 546.892924,23.5803102 548.142925,21.660665 Z M559.57151,12.9999404 L559.57151,55.8571343 C559.57151,62.9553571 553.812575,68.7142925 546.714352,68.7142925 L503.857158,68.7142925 C496.758935,68.7142925 491,62.9553571 491,55.8571343 L491,12.9999404 C491,5.90171765 496.758935,0.142782211 503.857158,0.142782211 L546.714352,0.142782211 C553.812575,0.142782211 559.57151,5.90171765 559.57151,12.9999404 Z" id="twitter-square---FontAwesome"></path>
            </g>
        </g>
    </g>
</svg>