<?xml version="1.0" encoding="UTF-8"?>
<svg width="80px" height="57px" viewBox="0 0 80 57" version="1.1" xmlns="http://www.w3.org/2000/svg" xmlns:xlink="http://www.w3.org/1999/xlink">
    <!-- Generator: Sketch 49 (51002) - http://www.bohemiancoding.com/sketch -->
    <title>youtube-play - FontAwesome</title>
    <desc>Created with Sketch.</desc>
    <defs></defs>
    <g id="Page-1" stroke="none" stroke-width="1" fill="none" fill-rule="evenodd">
        <g id="Desktop-HD" transform="translate(-260.000000, -662.000000)" fill="#FF0002">
            <g id="Group" transform="translate(260.000000, 656.000000)">
                <path d="M31.7411093,44.7856926 L53.3482779,33.624965 L31.7411093,22.3303087 L31.7411093,44.7856926 Z M40.0000477,6.30350384 C56.8304249,6.30350384 67.9911525,7.10707623 67.9911525,7.10707623 C69.5536543,7.28564787 72.9911584,7.28564787 76.0268763,10.4999374 C76.0268763,10.4999374 78.4822364,12.9106546 79.196523,18.4463755 C80.0447383,24.9195975 80.0000954,31.3928195 80.0000954,31.3928195 L80.0000954,37.4642553 C80.0000954,37.4642553 80.0447383,43.9374773 79.196523,50.4106993 C78.4822364,55.9017773 76.0268763,58.3571373 76.0268763,58.3571373 C72.9911584,61.526784 69.5536543,61.526784 67.9911525,61.7053556 C67.9911525,61.7053556 56.8304249,62.5535709 40.0000477,62.5535709 C19.1964515,62.3749993 12.8125153,61.7499985 12.8125153,61.7499985 C11.0267989,61.4374981 7.00893693,61.526784 3.97321902,58.3571373 C3.97321902,58.3571373 1.51785895,55.9017773 0.803572387,50.4106993 C-0.0446429104,43.9374773 5.17164436e-17,37.4642553 5.17164436e-17,37.4642553 L5.17164436e-17,31.3928195 C5.17164436e-17,31.3928195 -0.0446429104,24.9195975 0.803572387,18.4463755 C1.51785895,12.9106546 3.97321902,10.4999374 3.97321902,10.4999374 C7.00893693,7.28564787 10.446441,7.28564787 12.0089429,7.10707623 C12.0089429,7.10707623 23.1696705,6.30350384 40.0000477,6.30350384 Z" id="youtube-play---FontAwesome"></path>
            </g>
        </g>
    </g>
</svg>